<?xml version='1.0' encoding='UTF-8'?>
<svg width="123mm" height="123mm" version="1.1" viewBox="0 0 123 123" fill_color="#05080d" back_color="white" xmlns="http://www.w3.org/2000/svg"><path d="M12,12H15V15H12zM15,12H18V15H15zM18,12H21V15H18zM21,12H24V15H21zM24,12H27V15H24zM27,12H30V15H27zM30,12H33V15H30zM42,12H45V15H42zM54,12H57V15H54zM60,12H63V15H60zM69,12H72V15H69zM72,12H75V15H72zM81,12H84V15H81zM84,12H87V15H84zM90,12H93V15H90zM93,12H96V15H93zM96,12H99V15H96zM99,12H102V15H99zM102,12H105V15H102zM105,12H108V15H105zM108,12H111V15H108zM12,15H15V18H12zM30,15H33V18H30zM36,15H39V18H36zM39,15H42V18H39zM42,15H45V18H42zM48,15H51V18H48zM51,15H54V18H51zM57,15H60V18H57zM60,15H63V18H60zM63,15H66V18H63zM69,15H72V18H69zM72,15H75V18H72zM78,15H81V18H78zM84,15H87V18H84zM90,15H93V18H90zM108,15H111V18H108zM12,18H15V21H12zM18,18H21V21H18zM21,18H24V21H21zM24,18H27V21H24zM30,18H33V21H30zM42,18H45V21H42zM45,18H48V21H45zM54,18H57V21H54zM57,18H60V21H57zM66,18H69V21H66zM75,18H78V21H75zM90,18H93V21H90zM96,18H99V21H96zM99,18H102V21H99zM102,18H105V21H102zM108,18H111V21H108zM12,21H15V24H12zM18,21H21V24H18zM21,21H24V24H21zM24,21H27V24H24zM30,21H33V24H30zM39,21H42V24H39zM45,21H48V24H45zM57,21H60V24H57zM60,21H63V24H60zM63,21H66V24H63zM66,21H69V24H66zM69,21H72V24H69zM78,21H81V24H78zM90,21H93V24H90zM96,21H99V24H96zM99,21H102V24H99zM102,21H105V24H102zM108,21H111V24H108zM12,24H15V27H12zM18,24H21V27H18zM21,24H24V27H21zM24,24H27V27H24zM30,24H33V27H30zM39,24H42V27H39zM51,24H54V27H51zM57,24H60V27H57zM60,24H63V27H60zM63,24H66V27H63zM66,24H69V27H66zM69,24H72V27H69zM72,24H75V27H72zM78,24H81V27H78zM90,24H93V27H90zM96,24H99V27H96zM99,24H102V27H99zM102,24H105V27H102zM108,24H111V27H108zM12,27H15V30H12zM30,27H33V30H30zM36,27H39V30H36zM45,27H48V30H45zM54,27H57V30H54zM66,27H69V30H66zM69,27H72V30H69zM72,27H75V30H72zM75,27H78V30H75zM81,27H84V30H81zM84,27H87V30H84zM90,27H93V30H90zM108,27H111V30H108zM12,30H15V33H12zM15,30H18V33H15zM18,30H21V33H18zM21,30H24V33H21zM24,30H27V33H24zM27,30H30V33H27zM30,30H33V33H30zM36,30H39V33H36zM42,30H45V33H42zM48,30H51V33H48zM54,30H57V33H54zM60,30H63V33H60zM66,30H69V33H66zM72,30H75V33H72zM78,30H81V33H78zM84,30H87V33H84zM90,30H93V33H90zM93,30H96V33H93zM96,30H99V33H96zM99,30H102V33H99zM102,30H105V33H102zM105,30H108V33H105zM108,30H111V33H108zM36,33H39V36H36zM39,33H42V36H39zM45,33H48V36H45zM48,33H51V36H48zM54,33H57V36H54zM57,33H60V36H57zM60,33H63V36H60zM69,33H72V36H69zM72,33H75V36H72zM75,33H78V36H75zM78,33H81V36H78zM84,33H87V36H84zM24,36H27V39H24zM27,36H30V39H27zM30,36H33V39H30zM33,36H36V39H33zM42,36H45V39H42zM45,36H48V39H45zM48,36H51V39H48zM51,36H54V39H51zM54,36H57V39H54zM57,36H60V39H57zM66,36H69V39H66zM69,36H72V39H69zM75,36H78V39H75zM81,36H84V39H81zM90,36H93V39H90zM93,36H96V39H93zM105,36H108V39H105zM15,39H18V42H15zM18,39H21V42H18zM27,39H30V42H27zM33,39H36V42H33zM36,39H39V42H36zM39,39H42V42H39zM45,39H48V42H45zM48,39H51V42H48zM51,39H54V42H51zM57,39H60V42H57zM63,39H66V42H63zM66,39H69V42H66zM69,39H72V42H69zM72,39H75V42H72zM81,39H84V42H81zM93,39H96V42H93zM99,39H102V42H99zM105,39H108V42H105zM18,42H21V45H18zM21,42H24V45H21zM27,42H30V45H27zM30,42H33V45H30zM36,42H39V45H36zM48,42H51V45H48zM54,42H57V45H54zM60,42H63V45H60zM63,42H66V45H63zM72,42H75V45H72zM75,42H78V45H75zM78,42H81V45H78zM81,42H84V45H81zM84,42H87V45H84zM90,42H93V45H90zM93,42H96V45H93zM96,42H99V45H96zM99,42H102V45H99zM102,42H105V45H102zM105,42H108V45H105zM15,45H18V48H15zM18,45H21V48H18zM21,45H24V48H21zM24,45H27V48H24zM27,45H30V48H27zM33,45H36V48H33zM36,45H39V48H36zM42,45H45V48H42zM60,45H63V48H60zM63,45H66V48H63zM69,45H72V48H69zM75,45H78V48H75zM81,45H84V48H81zM87,45H90V48H87zM96,45H99V48H96zM105,45H108V48H105zM108,45H111V48H108zM12,48H15V51H12zM15,48H18V51H15zM18,48H21V51H18zM21,48H24V51H21zM24,48H27V51H24zM30,48H33V51H30zM36,48H39V51H36zM42,48H45V51H42zM48,48H51V51H48zM51,48H54V51H51zM54,48H57V51H54zM57,48H60V51H57zM63,48H66V51H63zM66,48H69V51H66zM72,48H75V51H72zM84,48H87V51H84zM90,48H93V51H90zM93,48H96V51H93zM105,48H108V51H105zM108,48H111V51H108zM15,51H18V54H15zM21,51H24V54H21zM27,51H30V54H27zM36,51H39V54H36zM39,51H42V54H39zM42,51H45V54H42zM51,51H54V54H51zM54,51H57V54H54zM63,51H66V54H63zM72,51H75V54H72zM75,51H78V54H75zM78,51H81V54H78zM81,51H84V54H81zM87,51H90V54H87zM102,51H105V54H102zM105,51H108V54H105zM12,54H15V57H12zM18,54H21V57H18zM30,54H33V57H30zM36,54H39V57H36zM45,54H48V57H45zM48,54H51V57H48zM63,54H66V57H63zM69,54H72V57H69zM81,54H84V57H81zM87,54H90V57H87zM90,54H93V57H90zM96,54H99V57H96zM105,54H108V57H105zM15,57H18V60H15zM24,57H27V60H24zM33,57H36V60H33zM48,57H51V60H48zM69,57H72V60H69zM72,57H75V60H72zM75,57H78V60H75zM84,57H87V60H84zM87,57H90V60H87zM93,57H96V60H93zM96,57H99V60H96zM99,57H102V60H99zM105,57H108V60H105zM12,60H15V63H12zM21,60H24V63H21zM24,60H27V63H24zM30,60H33V63H30zM39,60H42V63H39zM54,60H57V63H54zM57,60H60V63H57zM60,60H63V63H60zM66,60H69V63H66zM69,60H72V63H69zM72,60H75V63H72zM75,60H78V63H75zM81,60H84V63H81zM87,60H90V63H87zM90,60H93V63H90zM96,60H99V63H96zM99,60H102V63H99zM102,60H105V63H102zM105,60H108V63H105zM12,63H15V66H12zM15,63H18V66H15zM24,63H27V66H24zM33,63H36V66H33zM39,63H42V66H39zM42,63H45V66H42zM45,63H48V66H45zM48,63H51V66H48zM57,63H60V66H57zM63,63H66V66H63zM81,63H84V66H81zM84,63H87V66H84zM87,63H90V66H87zM93,63H96V66H93zM105,63H108V66H105zM108,63H111V66H108zM12,66H15V69H12zM15,66H18V69H15zM27,66H30V69H27zM30,66H33V69H30zM33,66H36V69H33zM42,66H45V69H42zM45,66H48V69H45zM57,66H60V69H57zM63,66H66V69H63zM66,66H69V69H66zM78,66H81V69H78zM81,66H84V69H81zM84,66H87V69H84zM87,66H90V69H87zM90,66H93V69H90zM99,66H102V69H99zM105,66H108V69H105zM108,66H111V69H108zM12,69H15V72H12zM15,69H18V72H15zM18,69H21V72H18zM27,69H30V72H27zM45,69H48V72H45zM51,69H54V72H51zM54,69H57V72H54zM66,69H69V72H66zM69,69H72V72H69zM75,69H78V72H75zM78,69H81V72H78zM90,69H93V72H90zM108,69H111V72H108zM18,72H21V75H18zM21,72H24V75H21zM30,72H33V75H30zM36,72H39V75H36zM39,72H42V75H39zM42,72H45V75H42zM51,72H54V75H51zM63,72H66V75H63zM66,72H69V75H66zM69,72H72V75H69zM72,72H75V75H72zM75,72H78V75H75zM96,72H99V75H96zM99,72H102V75H99zM12,75H15V78H12zM15,75H18V78H15zM21,75H24V78H21zM24,75H27V78H24zM27,75H30V78H27zM42,75H45V78H42zM45,75H48V78H45zM48,75H51V78H48zM51,75H54V78H51zM54,75H57V78H54zM57,75H60V78H57zM63,75H66V78H63zM69,75H72V78H69zM75,75H78V78H75zM78,75H81V78H78zM84,75H87V78H84zM87,75H90V78H87zM90,75H93V78H90zM93,75H96V78H93zM99,75H102V78H99zM102,75H105V78H102zM105,75H108V78H105zM30,78H33V81H30zM33,78H36V81H33zM36,78H39V81H36zM39,78H42V81H39zM45,78H48V81H45zM63,78H66V81H63zM66,78H69V81H66zM72,78H75V81H72zM81,78H84V81H81zM84,78H87V81H84zM93,78H96V81H93zM18,81H21V84H18zM21,81H24V84H21zM24,81H27V84H24zM42,81H45V84H42zM45,81H48V84H45zM48,81H51V84H48zM54,81H57V84H54zM60,81H63V84H60zM63,81H66V84H63zM69,81H72V84H69zM72,81H75V84H72zM75,81H78V84H75zM81,81H84V84H81zM93,81H96V84H93zM105,81H108V84H105zM12,84H15V87H12zM15,84H18V87H15zM24,84H27V87H24zM27,84H30V87H27zM30,84H33V87H30zM48,84H51V87H48zM51,84H54V87H51zM54,84H57V87H54zM60,84H63V87H60zM63,84H66V87H63zM66,84H69V87H66zM69,84H72V87H69zM72,84H75V87H72zM84,84H87V87H84zM87,84H90V87H87zM90,84H93V87H90zM93,84H96V87H93zM96,84H99V87H96zM99,84H102V87H99zM105,84H108V87H105zM108,84H111V87H108zM36,87H39V90H36zM42,87H45V90H42zM48,87H51V90H48zM51,87H54V90H51zM54,87H57V90H54zM57,87H60V90H57zM66,87H69V90H66zM69,87H72V90H69zM72,87H75V90H72zM75,87H78V90H75zM81,87H84V90H81zM84,87H87V90H84zM96,87H99V90H96zM102,87H105V90H102zM12,90H15V93H12zM15,90H18V93H15zM18,90H21V93H18zM21,90H24V93H21zM24,90H27V93H24zM27,90H30V93H27zM30,90H33V93H30zM36,90H39V93H36zM42,90H45V93H42zM48,90H51V93H48zM51,90H54V93H51zM54,90H57V93H54zM57,90H60V93H57zM60,90H63V93H60zM63,90H66V93H63zM84,90H87V93H84zM90,90H93V93H90zM96,90H99V93H96zM102,90H105V93H102zM105,90H108V93H105zM12,93H15V96H12zM30,93H33V96H30zM36,93H39V96H36zM39,93H42V96H39zM51,93H54V96H51zM60,93H63V96H60zM63,93H66V96H63zM66,93H69V96H66zM69,93H72V96H69zM72,93H75V96H72zM78,93H81V96H78zM84,93H87V96H84zM96,93H99V96H96zM105,93H108V96H105zM108,93H111V96H108zM12,96H15V99H12zM18,96H21V99H18zM21,96H24V99H21zM24,96H27V99H24zM30,96H33V99H30zM36,96H39V99H36zM42,96H45V99H42zM45,96H48V99H45zM60,96H63V99H60zM78,96H81V99H78zM84,96H87V99H84zM87,96H90V99H87zM90,96H93V99H90zM93,96H96V99H93zM96,96H99V99H96zM12,99H15V102H12zM18,99H21V102H18zM21,99H24V102H21zM24,99H27V102H24zM30,99H33V102H30zM39,99H42V102H39zM45,99H48V102H45zM51,99H54V102H51zM54,99H57V102H54zM60,99H63V102H60zM63,99H66V102H63zM69,99H72V102H69zM72,99H75V102H72zM75,99H78V102H75zM81,99H84V102H81zM90,99H93V102H90zM93,99H96V102H93zM96,99H99V102H96zM99,99H102V102H99zM108,99H111V102H108zM12,102H15V105H12zM18,102H21V105H18zM21,102H24V105H21zM24,102H27V105H24zM30,102H33V105H30zM39,102H42V105H39zM42,102H45V105H42zM45,102H48V105H45zM48,102H51V105H48zM54,102H57V105H54zM66,102H69V105H66zM69,102H72V105H69zM75,102H78V105H75zM84,102H87V105H84zM87,102H90V105H87zM90,102H93V105H90zM96,102H99V105H96zM99,102H102V105H99zM102,102H105V105H102zM12,105H15V108H12zM30,105H33V108H30zM42,105H45V108H42zM48,105H51V108H48zM51,105H54V108H51zM54,105H57V108H54zM57,105H60V108H57zM63,105H66V108H63zM66,105H69V108H66zM69,105H72V108H69zM75,105H78V108H75zM78,105H81V108H78zM81,105H84V108H81zM84,105H87V108H84zM87,105H90V108H87zM90,105H93V108H90zM93,105H96V108H93zM96,105H99V108H96zM102,105H105V108H102zM12,108H15V111H12zM15,108H18V111H15zM18,108H21V111H18zM21,108H24V111H21zM24,108H27V111H24zM27,108H30V111H27zM30,108H33V111H30zM39,108H42V111H39zM42,108H45V111H42zM48,108H51V111H48zM51,108H54V111H51zM54,108H57V111H54zM57,108H60V111H57zM63,108H66V111H63zM66,108H69V111H66zM69,108H72V111H69zM81,108H84V111H81zM84,108H87V111H84zM93,108H96V111H93zM102,108H105V111H102zM108,108H111V111H108z" id="qr-path" fill="#000000" fill-opacity="1" fill-rule="nonzero" stroke="none"/></svg>